<svg xmlns="http://www.w3.org/2000/svg" viewBox="0 0 64 80" x="0px" y="0px"><title>robot-robotics-Science-machine</title><g><path d="M61,9V7a1,1,0,0,0-2,0V9H57V7a1,1,0,0,0-2,0V9a1,1,0,0,0-1,1v8a1,1,0,0,0,1,1h2v2H49V19a1,1,0,0,0-1-1H45V17a1,1,0,0,0-1-1H36V12h5a1,1,0,0,0,1-1,9.011,9.011,0,0,0-9-9H31a9.011,9.011,0,0,0-9,9,1,1,0,0,0,1,1h5v4H20a1,1,0,0,0-1,1v1H16a1,1,0,0,0-1,1v2H7V19H9a1,1,0,0,0,1-1V10A1,1,0,0,0,9,9V7A1,1,0,0,0,7,7V9H5V7A1,1,0,0,0,3,7V9a1,1,0,0,0-1,1v8a1,1,0,0,0,1,1H5v3a1,1,0,0,0,1,1h9v2a1,1,0,0,0,1,1h3V39a1,1,0,0,0,1,1h8v4H17V39a1,1,0,0,0-1-1H8a1,1,0,0,0-1,1V61a1,1,0,0,0,1,1h8a1,1,0,0,0,1-1V56H47v5a1,1,0,0,0,1,1h8a1,1,0,0,0,1-1V39a1,1,0,0,0-1-1H48a1,1,0,0,0-1,1v5H35V40h9a1,1,0,0,0,1-1V26h3a1,1,0,0,0,1-1V23h9a1,1,0,0,0,1-1V19h2a1,1,0,0,0,1-1V10A1,1,0,0,0,61,9ZM4,11H8v6H4ZM31,4h2a7.011,7.011,0,0,1,6.929,6H24.071A7.011,7.011,0,0,1,31,4Zm-1,8h4v4H30ZM17,24V20h2v4ZM9,40h2.425l-.1.095a3.155,3.155,0,0,0,0,5.139c.48.44.675.637.675,1.095s-.2.654-.675,1.094a3.156,3.156,0,0,0,0,5.14c.481.44.676.637.676,1.095s-.2.657-.676,1.1a3.161,3.161,0,0,0,0,5.145c.04.037.067.065.1.1H9Zm6,20H13.834a3.815,3.815,0,0,0-1.158-1.572c-.481-.442-.676-.639-.676-1.1s.2-.658.676-1.1a3.158,3.158,0,0,0,0-5.142C12.2,50.647,12,50.451,12,49.993s.2-.655.675-1.095a3.154,3.154,0,0,0,0-5.139c-.48-.44-.675-.637-.675-1.094s.2-.655.675-1.095A3.831,3.831,0,0,0,13.834,40H15V60Zm40,0H52.575l.1-.095a3.155,3.155,0,0,0,0-5.139c-.48-.44-.675-.637-.675-1.095s.2-.654.675-1.094a3.155,3.155,0,0,0,0-5.139C52.2,47,52,46.8,52,46.342s.2-.657.676-1.1a3.161,3.161,0,0,0,0-5.145c-.04-.037-.067-.065-.1-.1H55ZM49,40h1.166a3.815,3.815,0,0,0,1.158,1.572c.481.442.676.639.676,1.1s-.2.658-.676,1.1a3.158,3.158,0,0,0,0,5.142c.481.441.676.637.676,1.095s-.2.655-.675,1.095a3.154,3.154,0,0,0,0,5.139c.48.44.675.637.675,1.094s-.2.655-.675,1.095A3.831,3.831,0,0,0,50.166,60H49V40ZM47,54H41V49a1,1,0,0,0-2,0v5H37V49a1,1,0,0,0-2,0v5H33V49a1,1,0,0,0-2,0v5H29V49a1,1,0,0,0-2,0v5H25V49a1,1,0,0,0-2,0v5H17V46H47ZM33,44H30V40h3Zm-8-6V32H39v6Zm18,0H41V31a1,1,0,0,0-1-1H24a1,1,0,0,0-1,1v7H21V18H43Zm4-14H45V20h2Zm13-7H56V11h4Z"/><path d="M27,20H24a1,1,0,0,0-1,1v3a1,1,0,0,0,2,0V22h2a1,1,0,0,0,0-2Z"/><path d="M40,20H37a1,1,0,0,0,0,2h2v2a1,1,0,0,0,2,0V21A1,1,0,0,0,40,20Z"/></g><text x="0" y="79" fill="#000000" font-size="5px" font-weight="bold" font-family="'Helvetica Neue', Helvetica, Arial-Unicode, Arial, Sans-serif">Created by Smalllike</text><text x="0" y="84" fill="#000000" font-size="5px" font-weight="bold" font-family="'Helvetica Neue', Helvetica, Arial-Unicode, Arial, Sans-serif">from the Noun Project</text></svg>